<?xml version="1.0" standalone="no"?>
<!DOCTYPE svg PUBLIC "-//W3C//DTD SVG 20010904//EN"
 "http://www.w3.org/TR/2001/REC-SVG-20010904/DTD/svg10.dtd">
<svg version="1.0" xmlns="http://www.w3.org/2000/svg"
 width="1340.000000pt" height="648.000000pt" viewBox="0 0 1340.000000 648.000000"
 preserveAspectRatio="xMidYMid meet">

<g transform="translate(0.000000,648.000000) scale(0.100000,-0.100000)"
fill="#000000" stroke="none">
<path d="M210 6320 c6 -11 20 -20 30 -20 18 0 20 -7 20 -70 0 -40 4 -70 10
-70 6 0 10 30 10 69 0 65 1 69 25 75 14 4 25 13 25 21 0 12 -14 15 -65 15 -63
0 -65 -1 -55 -20z"/>
<path d="M440 6320 c18 -33 110 -23 110 12 0 4 -27 8 -60 8 -58 0 -60 -1 -50
-20z"/>
<path d="M660 6285 l0 -55 45 0 c33 0 45 -4 45 -15 0 -11 -11 -15 -40 -15 -29
0 -42 -5 -50 -20 -10 -19 -8 -20 50 -20 l60 0 0 55 0 55 -45 0 c-33 0 -45 4
-45 15 0 10 11 15 35 15 24 0 37 6 45 20 10 19 8 20 -45 20 l-55 0 0 -55z"/>
<path d="M880 6249 l0 -90 52 3 c41 2 54 7 56 21 3 14 -4 17 -42 17 l-46 0 0
70 c0 40 -4 70 -10 70 -6 0 -10 -37 -10 -91z"/>
<path d="M1090 6320 c18 -33 110 -23 110 12 0 4 -27 8 -60 8 -58 0 -60 -1 -50
-20z"/>
<path d="M11119 6324 c-12 -14 -10 -19 14 -40 34 -29 34 -38 2 -30 -14 4 -25
2 -25 -4 0 -12 45 -24 59 -15 20 12 11 43 -16 65 l-28 21 28 -6 c21 -4 28 -2
25 7 -7 20 -43 21 -59 2z"/>
<path d="M11200 6285 c0 -30 5 -55 10 -55 6 0 10 11 10 25 0 20 5 25 25 25 20
0 25 -5 25 -25 0 -14 5 -25 10 -25 6 0 10 25 10 55 0 30 -4 55 -10 55 -5 0
-10 -9 -10 -20 0 -15 -7 -20 -25 -20 -18 0 -25 5 -25 20 0 11 -4 20 -10 20 -5
0 -10 -25 -10 -55z"/>
<path d="M11322 6328 c-7 -7 -12 -26 -12 -43 0 -37 15 -55 46 -55 29 0 54 25
54 55 0 45 -58 73 -88 43z m63 -43 c0 -25 -4 -30 -25 -30 -16 0 -26 6 -28 18
-6 30 6 49 30 45 18 -2 23 -9 23 -33z"/>
<path d="M11430 6286 c0 -31 5 -56 10 -56 6 0 10 8 10 19 0 13 10 20 31 25 26
5 30 10 27 33 -3 24 -8 28 -40 31 l-38 3 0 -55z m60 19 c0 -8 -9 -15 -20 -15
-11 0 -20 7 -20 15 0 8 9 15 20 15 11 0 20 -7 20 -15z"/>
<path d="M11630 6330 c0 -5 7 -10 15 -10 11 0 15 -12 15 -45 0 -25 5 -45 10
-45 6 0 10 20 10 45 0 33 4 45 15 45 8 0 15 5 15 10 0 6 -18 10 -40 10 -22 0
-40 -4 -40 -10z"/>
<path d="M11720 6285 l0 -55 40 0 c22 0 40 5 40 10 0 6 -13 10 -30 10 -20 0
-30 5 -30 15 0 10 10 15 30 15 17 0 30 5 30 10 0 6 -13 10 -30 10 -16 0 -30 5
-30 10 0 6 14 10 30 10 17 0 30 5 30 10 0 6 -18 10 -40 10 l-40 0 0 -55z"/>
<path d="M11837 6333 c-15 -15 -5 -44 18 -55 33 -15 32 -32 -1 -24 -19 5 -25
3 -22 -6 3 -7 18 -13 34 -13 40 0 47 39 10 57 -34 15 -33 32 1 23 23 -5 25 -4
14 9 -14 16 -42 21 -54 9z"/>
<path d="M11920 6285 l0 -55 50 0 c36 0 52 4 56 15 4 8 17 15 30 15 15 0 24
-6 24 -15 0 -8 5 -15 10 -15 6 0 10 4 10 9 0 19 -40 101 -49 101 -5 0 -17 -22
-26 -48 -17 -46 -19 -48 -51 -44 -33 4 -34 6 -34 48 0 24 -4 44 -10 44 -5 0
-10 -25 -10 -55z m139 -4 c-15 -5 -22 6 -14 19 6 9 10 9 16 -1 5 -8 4 -15 -2
-18z"/>
<path d="M12163 6288 c-21 -55 -21 -76 1 -45 16 21 56 23 56 2 0 -8 5 -15 10
-15 6 0 10 4 10 9 0 18 -40 101 -48 101 -5 0 -18 -24 -29 -52z m36 -7 c-15 -5
-22 6 -14 19 6 9 10 9 16 -1 5 -8 4 -15 -2 -18z"/>
<path d="M12272 6328 c-7 -7 -12 -26 -12 -43 0 -17 5 -36 12 -43 16 -16 53
-15 67 1 14 18 2 30 -15 16 -21 -17 -44 -3 -44 26 0 29 23 43 44 26 17 -14 29
-2 15 16 -14 16 -51 17 -67 1z"/>
<path d="M12382 6328 c-7 -7 -12 -26 -12 -43 0 -17 5 -36 12 -43 16 -16 53
-15 67 1 14 18 2 30 -15 16 -21 -17 -44 -3 -44 26 0 29 23 43 44 26 17 -14 29
-2 15 16 -14 16 -51 17 -67 1z"/>
<path d="M12483 6314 c-15 -24 -15 -29 -2 -53 29 -51 89 -35 89 23 0 59 -55
78 -87 30z m66 -11 c11 -21 -3 -53 -23 -53 -21 0 -38 27 -31 50 8 24 40 26 54
3z"/>
<path d="M12590 6304 c0 -19 5 -44 10 -55 12 -21 50 -25 68 -7 14 14 16 98 2
98 -5 0 -10 -21 -10 -46 0 -41 -2 -45 -22 -42 -19 2 -24 10 -26 46 -4 51 -22
57 -22 6z"/>
<path d="M12700 6285 c0 -30 5 -55 10 -55 6 0 10 17 10 38 l1 37 22 -37 c32
-55 47 -49 47 17 0 62 -17 75 -22 18 l-3 -38 -22 38 c-12 20 -27 37 -33 37 -6
0 -10 -24 -10 -55z"/>
<path d="M12810 6330 c0 -5 7 -10 15 -10 11 0 15 -12 15 -45 0 -25 5 -45 10
-45 6 0 10 20 10 45 0 33 4 45 15 45 8 0 15 5 15 10 0 6 -18 10 -40 10 -22 0
-40 -4 -40 -10z"/>
<path d="M3740 6265 c0 -62 17 -75 22 -17 l4 37 10 -34 c14 -48 30 -49 42 -4
l10 38 1 -37 c2 -61 21 -44 21 18 0 47 -3 55 -17 52 -9 -2 -21 -18 -26 -38
l-10 -35 -10 38 c-6 26 -14 37 -28 37 -16 0 -19 -8 -19 -55z"/>
<path d="M3882 6308 c-17 -17 -15 -73 2 -88 23 -18 59 -8 75 21 13 24 13 29
-2 53 -19 28 -54 35 -75 14z m63 -27 c9 -29 -5 -52 -29 -49 -37 5 -34 68 3 68
11 0 22 -8 26 -19z"/>
<path d="M3990 6266 c0 -55 0 -56 30 -56 71 0 74 101 2 108 l-32 3 0 -55z m65
15 c9 -28 -5 -51 -31 -51 -21 0 -24 5 -24 35 0 30 3 35 24 35 15 0 27 -7 31
-19z"/>
<path d="M4090 6265 l0 -55 45 0 c25 0 45 5 45 10 0 6 -16 10 -35 10 -24 0
-35 5 -35 15 0 10 10 15 30 15 17 0 30 5 30 10 0 6 -13 10 -30 10 -16 0 -30 5
-30 10 0 6 14 10 30 10 17 0 30 5 30 10 0 6 -18 10 -40 10 l-40 0 0 -55z"/>
<path d="M4190 6265 l0 -55 40 0 c22 0 40 5 40 10 0 6 -13 10 -30 10 -29 0
-30 2 -30 45 0 25 -4 45 -10 45 -5 0 -10 -25 -10 -55z"/>
<path d="M4339 6304 c-12 -14 -10 -19 14 -40 34 -29 34 -38 2 -30 -14 4 -25 2
-25 -4 0 -12 45 -24 59 -15 20 12 11 43 -16 65 l-28 21 28 -6 c21 -4 28 -2 25
7 -7 20 -43 21 -59 2z"/>
<path d="M4620 6265 c0 -62 17 -75 22 -17 l4 37 10 -34 c14 -48 30 -49 42 -4
l10 38 1 -37 c2 -61 21 -44 21 18 0 47 -3 55 -17 52 -9 -2 -21 -18 -26 -38
l-10 -35 -10 38 c-6 26 -14 37 -28 37 -16 0 -19 -8 -19 -55z"/>
<path d="M4762 6308 c-17 -17 -15 -73 2 -88 23 -18 59 -8 75 21 13 24 13 29
-2 53 -19 28 -54 35 -75 14z m63 -27 c9 -29 -5 -52 -29 -49 -37 5 -34 68 3 68
11 0 22 -8 26 -19z"/>
<path d="M4870 6266 c0 -55 0 -56 30 -56 71 0 74 101 2 108 l-32 3 0 -55z m65
15 c9 -28 -5 -51 -31 -51 -21 0 -24 5 -24 35 0 30 3 35 24 35 15 0 27 -7 31
-19z"/>
<path d="M4970 6265 l0 -55 45 0 c25 0 45 5 45 10 0 6 -16 10 -35 10 -24 0
-35 5 -35 15 0 10 10 15 30 15 17 0 30 5 30 10 0 6 -13 10 -30 10 -16 0 -30 5
-30 10 0 6 14 10 30 10 17 0 30 5 30 10 0 6 -18 10 -40 10 l-40 0 0 -55z"/>
<path d="M5070 6265 l0 -55 40 0 c22 0 40 5 40 10 0 6 -13 10 -30 10 -29 0
-30 2 -30 45 0 25 -4 45 -10 45 -5 0 -10 -25 -10 -55z"/>
<path d="M5217 6313 c-14 -13 -6 -24 13 -18 22 7 28 -10 8 -19 -10 -5 -10 -7
0 -12 13 -6 17 -34 4 -34 -4 0 -13 5 -20 12 -6 6 -15 8 -19 5 -4 -4 1 -15 10
-25 25 -25 52 -4 52 39 0 48 -25 75 -48 52z"/>
<path d="M5490 6266 c0 -62 19 -79 21 -18 l1 37 10 -38 c12 -45 28 -44 42 4
l10 34 7 -40 c6 -38 6 -37 8 18 1 68 -21 80 -36 20 l-10 -38 -10 35 c-5 20
-17 36 -26 38 -14 3 -17 -5 -17 -52z"/>
<path d="M5626 6304 c-34 -33 -9 -94 38 -94 31 0 46 18 46 55 0 17 -5 36 -12
43 -17 17 -54 15 -72 -4z m59 -39 c0 -25 -4 -30 -25 -30 -16 0 -26 6 -28 18
-6 30 6 49 30 45 18 -2 23 -9 23 -33z"/>
<path d="M5730 6266 l0 -56 35 0 c43 0 65 34 49 78 -8 22 -16 28 -47 30 l-37
3 0 -55z m65 -1 c0 -23 -5 -31 -22 -33 -20 -3 -23 1 -23 33 0 32 3 36 23 33
17 -2 22 -10 22 -33z"/>
<path d="M5840 6265 l0 -55 40 0 c22 0 40 5 40 10 0 6 -13 10 -30 10 -20 0
-30 5 -30 15 0 9 9 15 25 15 14 0 25 5 25 10 0 6 -11 10 -25 10 -14 0 -25 5
-25 10 0 6 14 10 30 10 17 0 30 5 30 10 0 6 -18 10 -40 10 l-40 0 0 -55z"/>
<path d="M5940 6265 l0 -55 35 0 c19 0 35 5 35 10 0 6 -11 10 -25 10 -23 0
-25 4 -25 45 0 25 -4 45 -10 45 -5 0 -10 -25 -10 -55z"/>
<path d="M6070 6315 c0 -3 6 -14 13 -25 10 -17 9 -26 -5 -50 -19 -33 -4 -42
18 -12 12 16 14 16 28 -3 21 -28 31 -12 11 18 -15 24 -15 27 0 51 19 28 6 36
-16 10 -11 -14 -13 -14 -21 0 -8 15 -28 22 -28 11z"/>
<path d="M6370 6266 c0 -62 19 -79 21 -18 l1 37 10 -38 c12 -45 28 -44 42 4
l10 34 7 -40 c6 -38 6 -37 8 18 1 68 -21 80 -36 20 l-10 -38 -10 35 c-5 20
-17 36 -26 38 -14 3 -17 -5 -17 -52z"/>
<path d="M6506 6304 c-34 -33 -9 -94 38 -94 31 0 46 18 46 55 0 17 -5 36 -12
43 -17 17 -54 15 -72 -4z m59 -39 c0 -25 -4 -30 -25 -30 -16 0 -26 6 -28 18
-6 30 6 49 30 45 18 -2 23 -9 23 -33z"/>
<path d="M6610 6266 l0 -56 35 0 c43 0 65 34 49 78 -8 22 -16 28 -47 30 l-37
3 0 -55z m65 -1 c0 -23 -5 -31 -22 -33 -20 -3 -23 1 -23 33 0 32 3 36 23 33
17 -2 22 -10 22 -33z"/>
<path d="M6720 6265 l0 -55 40 0 c22 0 40 5 40 10 0 6 -13 10 -30 10 -20 0
-30 5 -30 15 0 9 9 15 25 15 14 0 25 5 25 10 0 6 -11 10 -25 10 -14 0 -25 5
-25 10 0 6 14 10 30 10 17 0 30 5 30 10 0 6 -18 10 -40 10 l-40 0 0 -55z"/>
<path d="M6820 6265 l0 -55 35 0 c19 0 35 5 35 10 0 6 -11 10 -25 10 -23 0
-25 4 -25 45 0 25 -4 45 -10 45 -5 0 -10 -25 -10 -55z"/>
<path d="M6940 6313 c0 -5 9 -19 20 -33 11 -14 20 -36 21 -50 l1 -25 7 25 c3
14 14 40 24 58 10 17 13 32 8 32 -6 0 -16 -10 -22 -22 l-12 -22 -15 22 c-14
21 -32 30 -32 15z"/>
<path d="M7267 6314 c-15 -15 -6 -43 21 -64 l27 -21 -34 5 c-29 5 -32 4 -21
-9 16 -19 44 -19 59 -1 15 17 5 44 -20 51 -10 4 -19 11 -19 16 0 6 9 7 21 4
15 -5 20 -3 17 6 -5 15 -40 24 -51 13z"/>
<path d="M7353 6294 c-15 -24 -15 -29 -2 -53 29 -51 89 -35 89 23 0 59 -55 78
-87 30z m66 -11 c11 -21 -3 -53 -23 -53 -21 0 -38 27 -31 50 8 24 40 26 54 3z"/>
<path d="M7460 6265 l0 -55 40 0 c22 0 40 5 40 10 0 6 -13 10 -30 10 -29 0
-30 2 -30 45 0 25 -4 45 -10 45 -5 0 -10 -25 -10 -55z"/>
<path d="M7576 6288 c-24 -57 -28 -78 -17 -78 6 0 11 7 11 15 0 21 47 19 59
-2 5 -10 12 -15 15 -12 8 8 -34 109 -46 109 -5 0 -15 -15 -22 -32z m34 -19 c0
-5 -7 -9 -15 -9 -9 0 -12 6 -9 15 6 15 24 11 24 -6z"/>
<path d="M7660 6265 c0 -30 5 -55 10 -55 6 0 10 9 10 20 0 11 7 20 15 20 8 0
19 -9 25 -20 6 -11 18 -20 27 -20 14 0 14 2 -1 19 -14 16 -15 23 -5 39 20 32
5 52 -41 52 l-40 0 0 -55z m70 20 c0 -9 -9 -15 -25 -15 -16 0 -25 6 -25 15 0
9 9 15 25 15 16 0 25 -6 25 -15z"/>
<path d="M7810 6265 c0 -30 5 -55 10 -55 6 0 10 9 10 20 0 11 7 20 15 20 8 0
19 -9 25 -20 6 -11 18 -20 27 -20 14 0 14 2 -1 19 -14 16 -15 23 -5 39 20 32
5 52 -41 52 l-40 0 0 -55z m70 20 c0 -9 -9 -15 -25 -15 -16 0 -25 6 -25 15 0
9 9 15 25 15 16 0 25 -6 25 -15z"/>
<path d="M7932 6308 c-7 -7 -12 -26 -12 -43 0 -37 15 -55 46 -55 29 0 54 25
54 55 0 45 -58 73 -88 43z m63 -43 c0 -25 -4 -30 -25 -30 -16 0 -26 6 -28 18
-6 30 6 49 30 45 18 -2 23 -9 23 -33z"/>
<path d="M8052 6308 c-17 -17 -15 -73 2 -88 23 -18 59 -8 75 21 13 24 13 29
-2 53 -19 28 -54 35 -75 14z m63 -27 c9 -29 -5 -52 -29 -49 -37 5 -34 68 3 68
11 0 22 -8 26 -19z"/>
<path d="M8161 6263 c1 -32 4 -46 6 -30 3 21 10 27 29 27 13 0 24 5 24 10 0 6
-11 10 -25 10 -14 0 -25 5 -25 10 0 6 14 10 30 10 17 0 30 5 30 10 0 6 -16 10
-35 10 l-35 0 1 -57z"/>
<path d="M8467 6314 c-15 -15 -6 -43 21 -64 l27 -21 -34 5 c-29 5 -32 4 -21
-9 16 -19 44 -19 59 -1 15 17 5 44 -20 51 -10 4 -19 11 -19 16 0 6 9 7 21 4
15 -5 20 -3 17 6 -5 15 -40 24 -51 13z"/>
<path d="M8553 6294 c-15 -24 -15 -29 -2 -53 29 -51 89 -35 89 23 0 59 -55 78
-87 30z m66 -11 c11 -21 -3 -53 -23 -53 -21 0 -38 27 -31 50 8 24 40 26 54 3z"/>
<path d="M8660 6265 l0 -55 40 0 c22 0 40 5 40 10 0 6 -13 10 -30 10 -29 0
-30 2 -30 45 0 25 -4 45 -10 45 -5 0 -10 -25 -10 -55z"/>
<path d="M8776 6288 c-24 -57 -28 -78 -17 -78 6 0 11 7 11 15 0 21 47 19 59
-2 5 -10 12 -15 15 -12 8 8 -34 109 -46 109 -5 0 -15 -15 -22 -32z m34 -19 c0
-5 -7 -9 -15 -9 -9 0 -12 6 -9 15 6 15 24 11 24 -6z"/>
<path d="M8860 6265 c0 -30 5 -55 10 -55 6 0 10 9 10 20 0 11 7 20 15 20 8 0
19 -9 25 -20 6 -11 18 -20 27 -20 14 0 14 2 -1 19 -14 16 -15 23 -5 39 20 32
5 52 -41 52 l-40 0 0 -55z m70 20 c0 -9 -9 -15 -25 -15 -16 0 -25 6 -25 15 0
9 9 15 25 15 16 0 25 -6 25 -15z"/>
<path d="M9010 6265 c0 -30 5 -55 10 -55 6 0 10 9 10 20 0 15 7 20 25 20 29 0
47 27 34 52 -6 12 -21 18 -44 18 l-35 0 0 -55z m65 20 c0 -5 -10 -11 -22 -13
-16 -2 -23 2 -23 13 0 11 7 15 23 13 12 -2 22 -7 22 -13z"/>
<path d="M9117 6273 c-20 -56 -21 -63 -7 -63 6 0 10 7 10 15 0 21 40 19 56 -2
22 -31 22 -10 1 45 -11 28 -25 52 -31 52 -7 0 -20 -21 -29 -47z m43 -4 c0 -5
-7 -9 -15 -9 -9 0 -12 6 -9 15 6 15 24 11 24 -6z"/>
<path d="M9210 6265 c0 -30 5 -55 10 -55 6 0 10 17 10 38 l1 37 22 -37 c32
-55 47 -49 47 17 0 62 -17 75 -22 18 l-3 -38 -22 38 c-12 20 -27 37 -33 37 -6
0 -10 -24 -10 -55z"/>
<path d="M9320 6265 l0 -55 40 0 c22 0 40 5 40 10 0 6 -13 10 -30 10 -20 0
-30 5 -30 15 0 9 9 15 25 15 14 0 25 5 25 10 0 6 -11 10 -25 10 -14 0 -25 5
-25 10 0 6 14 10 30 10 17 0 30 5 30 10 0 6 -18 10 -40 10 l-40 0 0 -55z"/>
<path d="M9420 6265 l0 -55 35 0 c19 0 35 5 35 10 0 6 -11 10 -25 10 -23 0
-25 4 -25 45 0 25 -4 45 -10 45 -5 0 -10 -25 -10 -55z"/>
<path d="M9527 6313 c-15 -15 -5 -44 18 -55 33 -15 32 -32 -1 -24 -19 5 -25 3
-22 -6 3 -7 18 -13 34 -13 40 0 47 39 10 57 -34 15 -33 32 1 23 23 -5 25 -4
14 9 -14 16 -42 21 -54 9z"/>
<path d="M13020 6300 c0 -6 37 -10 90 -10 53 0 90 4 90 10 0 6 -37 10 -90 10
-53 0 -90 -4 -90 -10z"/>
<path d="M430 6262 c0 -18 26 -32 60 -32 34 0 60 14 60 32 0 4 -27 8 -60 8
-33 0 -60 -4 -60 -8z"/>
<path d="M1090 6215 c0 -30 5 -55 10 -55 6 0 10 16 10 35 0 33 2 35 35 35 33
0 35 -2 35 -35 0 -19 5 -35 10 -35 6 0 10 25 10 55 l0 55 -55 0 -55 0 0 -55z"/>
<path d="M13020 6250 c0 -6 37 -10 90 -10 53 0 90 4 90 10 0 6 -37 10 -90 10
-53 0 -90 -4 -90 -10z"/>
<path d="M13020 6200 c0 -6 37 -10 90 -10 53 0 90 4 90 10 0 6 -37 10 -90 10
-53 0 -90 -4 -90 -10z"/>
<path d="M430 6193 c1 -25 20 -34 66 -31 37 2 50 7 52 21 3 15 -5 17 -57 17
-34 0 -61 -3 -61 -7z"/>
<path d="M6730 5406 c0 -41 -1 -43 -25 -38 -60 11 -105 -30 -105 -97 0 -79 39
-114 118 -104 l52 6 0 138 c0 132 -1 139 -20 139 -17 0 -20 -7 -20 -44z m-2
-129 c5 -73 -37 -105 -72 -55 -19 26 -20 46 -6 83 8 22 15 26 42 23 32 -3 33
-5 36 -51z"/>
<path d="M7040 5310 l0 -140 25 0 25 0 0 140 0 140 -25 0 -25 0 0 -140z"/>
<path d="M6050 5306 c0 -129 1 -136 20 -136 18 0 20 7 20 82 0 49 4 78 9 73 5
-6 22 -41 38 -80 43 -101 59 -99 103 12 l35 88 3 -87 c3 -80 5 -88 22 -88 19
0 20 8 20 136 l0 135 -26 -3 c-23 -3 -31 -15 -63 -95 -20 -50 -39 -94 -42 -98
-4 -3 -24 38 -46 92 -35 87 -42 98 -66 101 l-27 3 0 -135z"/>
<path d="M7293 5430 c-43 -18 -58 -84 -25 -113 10 -10 40 -24 66 -33 55 -19
74 -45 50 -68 -24 -25 -69 -20 -92 9 -22 28 -52 33 -52 10 0 -25 45 -63 82
-70 49 -9 105 16 114 51 11 43 -14 76 -76 101 -63 25 -80 44 -61 67 24 29 91
18 91 -15 0 -14 7 -19 25 -19 31 0 32 20 2 55 -24 29 -86 42 -124 25z"/>
<path d="M6413 5355 c-51 -36 -46 -137 9 -178 38 -28 92 -17 118 26 45 73 6
167 -69 167 -20 0 -46 -7 -58 -15z m77 -25 c48 -26 28 -130 -25 -130 -47 0
-65 95 -23 124 27 19 24 19 48 6z"/>
<path d="M6863 5355 c-56 -39 -51 -150 9 -181 35 -18 89 -12 109 12 20 24 -2
36 -39 22 -36 -14 -65 -3 -70 25 -3 13 8 17 60 19 l63 3 -3 35 c-5 68 -75 103
-129 65z m87 -50 c0 -11 -12 -15 -40 -15 -40 0 -46 5 -32 26 18 27 72 19 72
-11z"/>
<path d="M5587 5012 c-23 -25 -21 -55 3 -77 32 -29 74 -10 78 35 5 54 -46 81
-81 42z m61 -4 c7 -7 12 -21 12 -33 0 -46 -53 -62 -71 -21 -21 45 26 87 59 54z"/>
<path d="M5790 5012 c0 -13 -7 -18 -22 -18 -20 1 -23 -4 -23 -34 0 -31 3 -35
28 -36 26 -1 27 1 27 52 0 30 -2 54 -5 54 -3 0 -5 -8 -5 -18z m-5 -52 c0 -13
-6 -25 -12 -27 -16 -6 -27 21 -19 43 9 23 31 11 31 -16z"/>
<path d="M6012 5018 c-7 -7 -12 -27 -12 -45 0 -26 6 -36 24 -45 31 -14 53 -5
68 26 22 49 -43 101 -80 64z m69 -19 c8 -16 8 -28 0 -45 -18 -41 -71 -25 -71
21 0 44 50 61 71 24z"/>
<path d="M6203 4975 c0 -33 2 -45 4 -27 2 18 2 45 0 60 -2 15 -4 0 -4 -33z"/>
<path d="M6478 5013 c-2 -10 -1 -36 3 -58 l6 -40 3 40 c1 22 2 44 1 49 -1 5 4
13 11 17 10 7 9 9 -3 9 -9 0 -18 -8 -21 -17z"/>
<path d="M6697 5023 c19 -4 23 -12 26 -56 l3 -52 2 52 c2 45 5 52 25 56 12 2
0 4 -28 4 -27 0 -40 -2 -28 -4z"/>
<path d="M7000 4975 c0 -30 5 -55 10 -55 6 0 10 16 10 35 0 24 5 35 15 35 10
0 15 -11 15 -35 0 -19 5 -35 10 -35 11 0 13 39 4 64 -3 9 -15 16 -25 16 -10 0
-19 7 -19 15 0 8 -4 15 -10 15 -5 0 -10 -25 -10 -55z"/>
<path d="M7093 4975 c0 -33 2 -45 4 -27 2 18 2 45 0 60 -2 15 -4 0 -4 -33z"/>
<path d="M7400 4975 c0 -54 1 -55 28 -55 36 0 52 17 52 55 0 38 -16 55 -52 55
-27 0 -28 -1 -28 -55z m66 21 c9 -38 -4 -66 -32 -66 -22 0 -24 4 -24 45 0 41
2 45 25 45 18 0 26 -7 31 -24z"/>
<path d="M7593 4975 c0 -33 2 -45 4 -27 2 18 2 45 0 60 -2 15 -4 0 -4 -33z"/>
<path d="M5691 4955 c2 -33 3 -35 6 -10 2 17 11 35 20 42 13 10 13 12 -6 10
-18 -1 -21 -7 -20 -42z"/>
<path d="M5832 4988 c-25 -25 -6 -68 29 -68 10 0 20 4 24 9 3 6 -7 9 -21 8
-15 -1 -29 4 -31 11 -3 8 6 12 26 12 17 0 31 4 31 8 0 12 -22 32 -35 32 -6 0
-16 -5 -23 -12z m43 -8 c4 -6 -5 -10 -20 -10 -15 0 -24 4 -20 10 3 6 12 10 20
10 8 0 17 -4 20 -10z"/>
<path d="M5912 4958 c1 -41 1 -41 5 -8 3 19 10 38 16 42 8 5 6 8 -5 8 -15 0
-18 -8 -16 -42z"/>
<path d="M6123 4960 c0 -25 2 -35 4 -22 2 12 2 32 0 45 -2 12 -4 2 -4 -23z"/>
<path d="M6152 4988 c9 -7 19 -26 21 -43 3 -21 4 -18 3 10 -1 31 -5 41 -21 43
-18 4 -19 3 -3 -10z"/>
<path d="M6233 4960 c0 -25 2 -35 4 -22 2 12 2 32 0 45 -2 12 -4 2 -4 -23z"/>
<path d="M6273 4960 c0 -25 2 -35 4 -22 2 12 2 32 0 45 -2 12 -4 2 -4 -23z"/>
<path d="M6302 4988 c9 -7 19 -26 21 -43 3 -21 4 -18 3 10 -1 31 -5 41 -21 43
-18 4 -19 3 -3 -10z"/>
<path d="M6351 4978 c-5 -13 -5 -30 1 -40 9 -18 43 -24 52 -10 3 5 -4 8 -16 8
-12 -1 -23 5 -25 12 -3 7 5 12 22 12 20 0 26 4 23 18 -5 27 -46 28 -57 0z m49
2 c0 -5 -9 -10 -20 -10 -11 0 -20 5 -20 10 0 6 9 10 20 10 11 0 20 -4 20 -10z"/>
<path d="M6522 4988 c-27 -27 -3 -73 35 -66 27 5 25 72 -2 76 -11 1 -26 -3
-33 -10z m43 -28 c0 -28 -29 -40 -38 -15 -9 22 3 46 22 43 10 -2 16 -13 16
-28z"/>
<path d="M6601 4955 c2 -33 3 -35 6 -10 2 17 11 35 20 42 13 10 13 12 -6 10
-18 -1 -21 -7 -20 -42z"/>
<path d="M6770 4985 c-26 -31 13 -82 44 -56 19 16 21 42 4 59 -16 16 -33 15
-48 -3z m45 -25 c0 -29 -32 -41 -41 -16 -9 24 4 48 23 44 12 -2 18 -12 18 -28z"/>
<path d="M6854 4960 c1 -31 4 -35 29 -36 25 -1 27 1 26 40 -1 42 -3 41 -13 -6
-9 -39 -34 -36 -39 5 -4 32 -4 32 -3 -3z"/>
<path d="M6934 4986 c-16 -42 20 -86 48 -58 6 6 0 8 -17 4 -24 -4 -26 -2 -23
24 2 24 7 29 26 27 13 -2 21 1 17 7 -9 15 -45 12 -51 -4z"/>
<path d="M7124 4986 c-16 -41 20 -86 47 -59 6 6 1 9 -12 9 -12 -1 -24 5 -26
12 -3 8 6 12 26 12 33 0 39 8 19 28 -16 16 -47 15 -54 -2z m46 -6 c0 -5 -9
-10 -21 -10 -11 0 -17 5 -14 10 3 6 13 10 21 10 8 0 14 -4 14 -10z"/>
<path d="M7207 4993 c-13 -12 -7 -23 18 -35 34 -15 32 -32 -2 -23 -21 5 -25 4
-17 -5 7 -7 20 -10 30 -8 27 5 30 35 5 43 -27 8 -27 29 -1 22 11 -3 18 -1 14
4 -6 10 -38 12 -47 2z"/>
<path d="M7287 4993 c-15 -14 -6 -31 18 -37 15 -4 23 -11 19 -17 -3 -6 -15 -8
-27 -5 -14 3 -17 2 -10 -5 15 -15 47 -7 51 13 2 12 -5 19 -22 24 -14 3 -26 11
-26 16 0 6 9 8 20 5 11 -3 20 -1 20 4 0 10 -33 12 -43 2z"/>
<path d="M7512 4988 c-15 -15 -15 -41 0 -56 14 -14 44 -16 52 -3 3 4 -5 6 -18
4 -15 -3 -25 1 -29 11 -5 12 0 16 24 16 24 0 30 4 27 18 -4 21 -39 27 -56 10z
m43 -8 c4 -6 -5 -10 -20 -10 -15 0 -24 4 -20 10 3 6 12 10 20 10 8 0 17 -4 20
-10z"/>
<path d="M7623 4960 c0 -25 2 -35 4 -22 2 12 2 32 0 45 -2 12 -4 2 -4 -23z"/>
<path d="M7650 4995 c0 -13 31 -78 35 -74 12 13 34 79 26 79 -5 0 -13 -15 -17
-32 l-7 -33 -14 33 c-12 28 -23 42 -23 27z"/>
<path d="M7734 4986 c-16 -41 20 -86 47 -59 6 6 1 9 -12 9 -12 -1 -24 5 -26
12 -3 8 6 12 26 12 33 0 39 8 19 28 -16 16 -47 15 -54 -2z m46 -6 c0 -5 -9
-10 -21 -10 -11 0 -17 5 -14 10 3 6 13 10 21 10 8 0 14 -4 14 -10z"/>
<path d="M7810 4958 c0 -21 5 -38 10 -38 6 0 10 15 10 34 0 19 6 36 13 39 6 3
2 4 -10 4 -20 -1 -23 -7 -23 -39z"/>
<path d="M7866 4980 c3 -14 8 -36 11 -49 4 -14 0 -27 -8 -32 -11 -7 -11 -9 -1
-9 13 0 34 42 45 90 6 23 5 22 -5 -2 -7 -16 -15 -28 -18 -28 -3 0 -11 12 -18
28 -11 25 -11 25 -6 2z"/>
<path d="M7285 4440 c-161 -13 -360 -39 -435 -55 -36 -8 -100 -22 -142 -30
-131 -26 -350 -92 -464 -139 -160 -65 -222 -94 -225 -104 -4 -11 -125 -72
-212 -107 -46 -19 -307 -162 -307 -168 0 -1 224 -2 497 -2 486 0 679 -7 667
-26 -3 -5 -17 -9 -32 -10 l-27 -1 25 -7 c17 -5 -7 -10 -75 -15 -129 -10 -467
-67 -629 -105 -153 -37 -425 -125 -596 -193 -305 -122 -399 -134 -190 -24 49
26 90 50 90 53 0 18 -368 -35 -705 -102 -121 -23 -251 -48 -290 -54 -38 -7
-110 -23 -160 -37 -49 -14 -136 -32 -192 -39 -108 -15 -173 -38 -173 -61 0 -9
11 -14 29 -14 54 0 89 -12 126 -44 l38 -33 -104 -7 c-117 -8 -190 -23 -170
-36 9 -5 11 -16 6 -31 -8 -26 -55 -102 -67 -107 -25 -11 8 -21 142 -42 83 -13
150 -27 150 -31 0 -3 -18 -9 -39 -13 -56 -9 -131 -43 -163 -74 -33 -30 -34
-39 -10 -46 9 -3 -11 -3 -46 0 l-63 5 2 -96 c1 -61 -3 -101 -10 -108 -16 -16
-14 -32 3 -18 11 9 15 4 21 -26 4 -21 14 -46 23 -57 16 -18 16 -18 -23 -14
-39 5 -85 -8 -85 -22 0 -28 123 -68 244 -81 50 -5 105 -13 121 -18 17 -5 61
-12 99 -16 49 -5 75 -13 90 -27 12 -11 40 -33 64 -48 l42 -28 -61 -11 c-34 -6
-73 -18 -86 -26 -17 -12 -64 -19 -156 -25 -73 -5 -154 -13 -182 -19 -27 -6
-72 -14 -99 -18 -57 -9 -70 -28 -27 -36 22 -5 29 -11 25 -22 -3 -8 -12 -15
-20 -15 -8 0 -14 -4 -14 -9 0 -12 64 -19 279 -30 96 -5 177 -14 180 -19 10
-15 41 -22 41 -9 0 8 2 9 8 1 5 -8 129 -10 437 -8 237 1 490 3 563 3 73 1 137
-1 142 -4 5 -3 254 -8 552 -12 337 -3 545 -9 549 -15 6 -9 209 2 294 15 17 3
102 8 190 12 88 4 195 10 238 15 l78 8 69 66 c68 65 70 67 116 64 42 -3 49 -7
63 -35 24 -47 55 -57 169 -49 53 4 194 9 312 11 118 3 267 10 330 15 222 18
281 20 274 8 -5 -8 7 -9 42 -4 27 3 88 9 136 13 48 3 85 10 82 14 -3 5 4 9 16
9 12 0 18 -4 15 -10 -3 -5 3 -10 14 -10 12 0 21 4 21 9 0 4 39 11 88 14 48 3
104 8 124 11 21 2 131 7 245 10 115 4 272 9 351 12 93 3 142 1 142 -6 0 -5 5
-10 11 -10 5 0 7 5 4 10 -3 6 -3 10 2 10 4 0 84 7 177 14 l168 14 35 34 c36
34 123 196 123 228 0 10 11 32 25 48 35 42 55 128 62 272 5 89 10 129 21 139
13 13 12 16 -4 22 -11 3 -22 5 -26 3 -3 -2 -13 29 -22 70 -35 157 -116 272
-216 306 l-52 17 29 20 c15 11 35 19 43 18 14 -2 16 17 15 144 -1 162 -8 184
-57 200 -42 13 -159 29 -268 36 -141 10 -145 12 -77 46 31 16 57 35 57 42 0 7
-13 26 -30 42 -23 22 -30 37 -30 67 0 24 -4 37 -10 33 -6 -4 -40 21 -77 54
-36 34 -68 59 -70 57 -2 -2 -50 25 -106 60 -212 134 -458 239 -658 283 -108
23 -331 45 -389 38 -22 -2 -37 -1 -35 3 3 4 -26 10 -63 14 -116 11 -852 15
-967 6z m-505 -250 c0 -5 -28 -53 -63 -107 -35 -54 -76 -121 -92 -149 l-28
-51 -361 -6 c-198 -4 -361 -5 -363 -3 -2 2 33 25 79 52 257 148 462 225 692
259 115 16 136 17 136 5z m532 -32 c40 -43 78 -106 78 -129 0 -8 -13 -10 -42
-5 -48 8 -68 21 -68 46 0 9 -13 43 -28 74 l-29 56 25 0 c17 0 38 -14 64 -42z
m1064 -55 c9 -21 24 -62 33 -91 14 -44 25 -57 64 -82 46 -29 56 -50 38 -78 -6
-10 -16 -7 -42 15 -19 15 -38 33 -44 40 -5 7 -36 22 -67 33 -53 19 -58 24 -58
51 0 16 9 38 20 49 13 13 20 33 20 60 0 50 15 51 36 3z m-1280 -32 c-3 -20 -6
-46 -6 -58 0 -14 -6 -23 -15 -23 -9 0 -15 -9 -15 -25 0 -22 -4 -25 -35 -25
-40 0 -45 -12 -12 -28 l22 -11 -22 0 c-12 -1 -28 -4 -37 -7 -24 -9 -19 11 12
47 15 18 21 30 15 25 -19 -11 -16 -2 18 67 39 78 47 87 66 80 11 -4 14 -15 9
-42z m328 -96 c3 -8 1 -15 -4 -15 -6 0 -10 7 -10 15 0 8 2 15 4 15 2 0 6 -7
10 -15z m-357 -61 c-3 -3 -12 -4 -19 -1 -8 3 -5 6 6 6 11 1 17 -2 13 -5z m113
-94 c11 -7 -1 -10 -40 -10 -39 0 -51 3 -40 10 8 5 26 10 40 10 14 0 32 -5 40
-10z m435 -20 c3 -5 -3 -10 -15 -10 -12 0 -18 5 -15 10 3 6 10 10 15 10 5 0
12 -4 15 -10z m-872 -7 c-13 -2 -33 -2 -45 0 -13 2 -3 4 22 4 25 0 35 -2 23
-4z m317 -93 c40 -6 9 -8 -115 -9 -211 -2 -418 -16 -599 -42 -76 -10 -147 -17
-157 -14 -10 3 -44 -1 -76 -9 -76 -19 -215 -31 -191 -17 45 29 338 83 543 100
109 9 507 3 595 -9z m-736 -218 c14 -24 -157 -148 -267 -194 -111 -47 -345
-84 -404 -64 -33 11 -28 26 7 26 58 0 226 32 269 51 45 19 171 123 171 140 0
5 -31 9 -70 9 -51 0 -69 -3 -67 -12 3 -17 -118 -78 -152 -78 -25 1 -24 1 7 15
49 21 95 56 85 65 -14 13 -365 -31 -513 -66 -112 -25 -142 -35 -248 -76 -92
-36 -133 -43 -106 -19 17 16 219 89 304 110 118 29 343 69 480 85 127 15 496
21 504 8z m616 -12 c0 -5 6 -7 13 -4 8 3 20 -2 27 -11 11 -13 8 -15 -24 -15
-20 0 -64 -9 -98 -21 l-61 -20 -25 24 -24 25 43 15 c49 17 149 22 149 7z
m2556 -63 c29 -28 71 -68 93 -87 22 -19 53 -53 68 -75 15 -22 31 -42 35 -45
14 -11 -125 -308 -152 -325 -13 -8 -59 53 -111 147 -48 87 -84 120 -148 138
-20 5 -120 10 -223 10 l-188 0 0 140 0 140 68 0 c92 1 256 11 262 17 3 3 59 3
124 -1 l119 -6 53 -53z m-1896 44 c0 -6 -8 -9 -17 -9 -10 0 -30 -2 -45 -5 -20
-4 -25 -2 -21 9 6 16 83 20 83 5z m1260 -140 l0 -139 -82 -6 c-46 -3 -240 -8
-433 -11 -192 -3 -414 -8 -492 -12 l-143 -6 0 126 0 127 63 1 c34 0 69 2 77 3
8 2 83 6 165 10 83 3 267 13 410 21 143 8 287 16 320 18 33 2 72 4 88 5 l27 2
0 -139z m-2099 100 c13 -11 22 -21 19 -23 -3 -2 -18 -14 -35 -27 -117 -87
-225 -231 -287 -382 -23 -58 -38 -81 -62 -94 -17 -10 -35 -23 -39 -29 -14 -19
5 47 34 122 60 152 121 253 208 346 35 38 120 105 132 106 4 0 17 -9 30 -19z
m939 -150 l0 -119 -37 -7 c-86 -16 -144 -67 -158 -140 -13 -63 -45 -96 -45
-46 0 10 -11 26 -24 34 -15 10 -31 37 -41 69 -23 70 -60 142 -101 201 -41 56
-41 61 -9 55 14 -3 25 -1 25 5 0 6 11 0 24 -12 19 -18 32 -22 51 -17 14 4 23
11 20 16 -3 6 1 10 9 10 9 0 16 3 16 8 0 20 145 57 243 61 l27 1 0 -119z
m-2002 82 c-10 -2 -28 -2 -40 0 -13 2 -5 4 17 4 22 1 32 -1 23 -4z m-405 -20
c-7 -2 -19 -2 -25 0 -7 3 -2 5 12 5 14 0 19 -2 13 -5z m170 0 c-7 -2 -21 -2
-30 0 -10 3 -4 5 12 5 17 0 24 -2 18 -5z m-1288 -83 c-3 -5 -1 -10 4 -10 6 0
11 5 11 11 0 6 8 9 18 7 21 -4 23 -33 2 -33 -9 0 -21 -19 -30 -45 -26 -76 -30
-78 -24 -11 5 55 3 63 -10 58 -10 -4 -16 -1 -16 7 0 15 14 24 38 25 7 1 10 -3
7 -9z m2856 -17 c76 -24 167 -116 214 -215 57 -120 69 -184 69 -348 0 -171
-15 -246 -74 -365 -124 -251 -329 -316 -499 -159 -236 218 -235 759 2 1002 52
53 147 102 197 102 21 0 62 -8 91 -17z m-251 -16 c0 -2 -10 -12 -22 -23 l-23
-19 19 23 c18 21 26 27 26 19z m3026 -39 c-2 -7 -23 -54 -48 -105 -25 -50 -53
-124 -63 -165 -10 -40 -22 -79 -28 -85 -9 -13 -47 -18 -47 -8 0 3 17 56 37
118 21 61 38 119 38 128 0 8 8 23 18 33 9 10 24 31 33 47 12 25 24 34 61 48 1
1 0 -5 -1 -11z m211 -59 c107 -40 175 -213 176 -444 1 -138 -19 -237 -64 -328
-107 -214 -288 -136 -353 153 -11 47 -18 121 -18 200 -1 71 -5 114 -9 100 -15
-52 -9 55 6 115 18 67 68 165 97 192 16 14 14 6 -10 -37 -41 -74 -51 -118 -12
-53 59 99 115 130 187 102z m-445 -319 c5 -14 14 -33 19 -42 12 -24 -25 -66
-64 -73 -18 -3 -45 -1 -62 4 -16 5 -22 10 -12 10 23 1 22 31 -2 31 -10 0 -21
9 -24 19 -7 28 -93 51 -186 51 -42 0 -137 -9 -211 -20 -172 -25 -180 -25 -180
0 0 23 1 24 192 50 167 23 287 25 388 9 49 -9 70 -16 72 -28 3 -11 11 -5 28
21 23 34 25 35 28 15 2 -12 8 -33 14 -47z m-735 -15 c7 -24 -20 -37 -108 -51
-52 -9 -161 -29 -244 -46 -82 -16 -172 -34 -200 -39 -27 -5 -90 -20 -140 -34
l-90 -24 135 4 c135 4 134 4 -70 -14 -113 -11 -258 -22 -322 -26 l-118 -7 0
25 c0 22 6 27 49 36 172 37 1067 191 1090 188 8 -1 16 -6 18 -12z m-5140 -51
c-3 -3 -12 -4 -19 -1 -8 3 -5 6 6 6 11 1 17 -2 13 -5z m5942 -104 c-11 -90
-23 -120 -45 -120 -14 0 -16 7 -11 37 6 33 58 165 64 160 1 -2 -2 -36 -8 -77z
m-90 -66 c-2 -98 -10 -120 -29 -83 -11 19 -5 161 7 182 14 24 23 -17 22 -99z
m-1131 39 c-10 -2 -28 -2 -40 0 -13 2 -5 4 17 4 22 1 32 -1 23 -4z m-748 -28
c0 -23 -3 -25 -50 -25 -79 0 -60 19 48 49 1 1 2 -10 2 -24z m-1323 -97 c-3 -7
-5 -2 -5 12 0 14 2 19 5 13 2 -7 2 -19 0 -25z m3257 6 c3 -9 6 -28 6 -42 l0
-26 -21 21 c-15 14 -19 27 -14 42 8 25 20 27 29 5z m-294 -10 c0 -3 -19 -13
-42 -24 -43 -18 -73 -21 -388 -35 -69 -4 -197 -10 -285 -15 -88 -5 -248 -14
-355 -20 -107 -5 -237 -12 -288 -15 -54 -3 -91 -2 -88 3 13 21 361 49 1021 82
225 12 412 23 414 26 6 6 11 5 11 -2z m-2979 -131 c-9 -16 -10 -16 -11 3 0 12
3 43 8 70 l7 49 3 -52 c2 -29 -2 -61 -7 -70z m-203 -41 c2 -7 -5 -12 -17 -12
-14 0 -19 5 -14 15 6 17 25 15 31 -3z m3168 -14 c26 -18 53 -28 76 -28 27 0
40 -6 52 -25 9 -13 16 -27 16 -31 0 -10 -232 4 -267 16 -15 5 -138 16 -273 25
-375 23 -430 27 -430 35 0 4 80 11 178 15 97 4 236 11 307 15 72 4 169 7 216
6 76 -1 90 -4 125 -28z m-4296 -86 c19 -5 7 -9 -45 -15 -73 -10 -215 -10 -225
-1 -3 3 4 12 15 21 16 12 40 14 125 8 58 -3 116 -9 130 -13z m88 -9 c-10 -2
-28 -2 -40 0 -13 2 -5 4 17 4 22 1 32 -1 23 -4z m1432 -253 c-8 -5 -40 -9 -70
-8 l-55 1 55 7 c91 11 87 11 70 0z m-220 -10 c0 -5 -4 -10 -10 -10 -5 0 -10 5
-10 10 0 6 5 10 10 10 6 0 10 -4 10 -10z m55 0 c-3 -5 -10 -10 -16 -10 -5 0
-9 5 -9 10 0 6 7 10 16 10 8 0 12 -4 9 -10z"/>
<path d="M6885 3162 c-54 -19 -126 -65 -148 -94 -13 -18 -34 -60 -47 -93 -13
-33 -28 -66 -33 -72 -13 -17 4 -16 27 2 22 17 92 20 101 5 4 -6 -5 -10 -20
-10 -14 0 -50 -12 -80 -27 -46 -24 -57 -35 -72 -73 -21 -53 -23 -202 -4 -292
7 -32 13 -61 13 -65 1 -20 73 -146 99 -174 16 -17 28 -34 28 -37 -6 -44 46
-74 137 -79 63 -3 82 0 120 19 52 26 155 130 171 174 6 16 25 66 42 111 l31
82 -8 173 c-7 131 -13 181 -26 206 -9 17 -21 32 -26 32 -6 0 -10 11 -10 24 0
37 -14 68 -49 105 -25 27 -36 32 -57 27 -19 -5 -37 1 -71 24 -49 33 -86 43
-118 32z m-200 -322 c-3 -5 -11 -10 -16 -10 -6 0 -7 5 -4 10 3 6 11 10 16 10
6 0 7 -4 4 -10z m205 -125 c-10 -12 -9 -15 4 -15 27 0 31 -29 7 -52 -13 -11
-20 -27 -16 -35 4 -13 3 -14 -10 -3 -8 7 -15 23 -15 36 0 13 -4 24 -10 24 -14
0 -13 33 2 48 7 7 21 12 31 12 16 0 17 -3 7 -15z m170 -136 c0 -11 -4 -17 -10
-14 -5 3 -10 13 -10 21 0 8 5 14 10 14 6 0 10 -9 10 -21z m-30 -59 c-6 -11
-12 -20 -14 -20 -2 0 -2 9 1 20 3 11 9 20 15 20 5 0 4 -9 -2 -20z m-290 -79
c-18 -14 -29 -17 -42 -10 -27 15 -12 29 30 29 l37 0 -25 -19z m-40 -26 c14 -8
37 -14 53 -15 30 0 36 -14 11 -24 -41 -16 -104 8 -104 40 0 17 8 17 40 -1z"/>
<path d="M9903 3045 c-24 -17 -99 -147 -114 -197 -26 -89 -18 -335 12 -354 6
-3 17 13 27 35 21 51 32 52 32 2 0 -41 -20 -67 -44 -58 -12 5 -12 -2 -1 -44
17 -63 37 -95 78 -119 95 -58 190 26 237 206 12 48 15 260 4 288 -7 18 -9 17
-30 -9 -12 -15 -27 -24 -33 -21 -20 13 -11 35 20 52 30 15 31 18 26 61 -2 25
-12 52 -21 61 -15 15 -18 13 -46 -18 l-29 -35 -1 67 c0 47 -5 71 -16 82 -20
20 -73 21 -101 1z m-70 -209 c4 -10 1 -13 -9 -9 -8 3 -14 -1 -14 -11 0 -9 -4
-16 -10 -16 -11 0 -13 11 -4 34 8 20 30 21 37 2z m104 -111 c1 -11 5 -30 8
-41 5 -16 2 -23 -14 -27 -12 -3 -21 -1 -21 5 0 5 -4 7 -9 4 -11 -7 -25 60 -16
75 11 17 50 6 52 -16z m40 -57 c-3 -7 -5 -2 -5 12 0 14 2 19 5 13 2 -7 2 -19
0 -25z m-27 -48 c0 -5 -5 -10 -11 -10 -5 0 -7 5 -4 10 3 6 8 10 11 10 2 0 4
-4 4 -10z m80 -33 c0 -13 -7 -32 -15 -43 -15 -19 -15 -19 -30 0 -14 18 -13 22
7 43 27 29 38 29 38 0z m-90 -62 c7 -9 8 -15 2 -15 -5 0 -12 7 -16 15 -3 8 -4
15 -2 15 2 0 9 -7 16 -15z"/>
<path d="M9786 2935 c-3 -9 -6 -22 -5 -28 0 -7 5 -1 10 12 5 13 8 26 5 28 -2
2 -6 -3 -10 -12z"/>
<path d="M9762 2840 c0 -14 2 -19 5 -12 2 6 2 18 0 25 -3 6 -5 1 -5 -13z"/>
<path d="M5828 4064 c-27 -13 -48 -27 -48 -29 0 -3 23 6 50 20 28 14 50 28 50
30 0 7 1 7 -52 -21z"/>
<path d="M5738 4014 c-38 -20 -36 -28 2 -9 17 9 30 18 30 20 0 7 -1 6 -32 -11z"/>
<path d="M5495 3885 c-66 -36 -111 -65 -100 -65 11 0 30 6 42 13 104 59 201
121 181 116 -2 0 -57 -29 -123 -64z"/>
<path d="M4189 3631 c-130 -41 -320 -165 -384 -248 -64 -84 -42 -81 125 17 63
37 181 102 262 144 180 94 192 106 112 105 -33 0 -84 -8 -115 -18z"/>
<path d="M3550 3014 c0 -9 5 -14 12 -12 18 6 21 28 4 28 -9 0 -16 -7 -16 -16z"/>
<path d="M1798 2313 c46 -2 118 -2 160 0 42 1 5 3 -83 3 -88 0 -123 -2 -77 -3z"/>
<path d="M65 2280 c-71 -12 235 -15 370 -4 39 4 72 8 75 11 7 6 -402 0 -445
-7z"/>
<path d="M13 2183 c9 -2 23 -2 30 0 6 3 -1 5 -18 5 -17 0 -22 -2 -12 -5z"/>
<path d="M7364 1438 c-3 -5 -14 -8 -25 -8 -11 0 -17 -4 -14 -10 7 -11 -14 -16
-97 -25 -67 -7 -169 4 -128 15 32 8 -274 3 -318 -5 -19 -4 -32 -2 -28 3 3 5
-19 5 -51 1 -58 -8 -78 -5 -68 12 4 5 -1 9 -9 9 -9 0 -16 -4 -16 -8 0 -5 -26
-9 -57 -10 -37 -1 -51 2 -39 7 31 12 3 22 -46 17 -24 -3 -97 -10 -163 -16
-131 -13 -174 -26 -57 -18 39 3 72 1 72 -3 0 -5 -21 -9 -47 -10 -27 0 -57 -5
-68 -10 -16 -7 -14 -8 10 -4 34 5 105 8 120 5 20 -4 -51 -18 -100 -19 -35 -1
-46 -4 -35 -10 8 -6 18 -7 22 -5 4 3 8 0 8 -7 0 -8 -18 -10 -65 -7 -36 3 -63
2 -60 -2 2 -4 -37 -13 -88 -19 -64 -8 -93 -9 -95 -2 -2 6 -8 11 -13 11 -6 0
-7 -6 -3 -12 6 -9 3 -9 -9 0 -16 14 -89 12 -132 -3 -16 -6 -17 -5 -5 4 13 10
13 12 0 21 -13 9 -13 10 0 11 8 1 20 2 25 4 6 1 34 3 63 3 28 1 52 6 52 10 0
8 -156 10 -170 3 -3 -2 -43 -2 -90 -2 -81 2 -240 -11 -324 -25 -34 -6 -38 -5
-33 9 8 20 30 20 -258 2 -252 -16 -286 -17 -240 -5 l30 8 -37 1 c-20 0 -38 -3
-40 -8 -2 -5 -33 -6 -73 -1 -76 8 -89 5 -81 -16 3 -8 1 -14 -4 -14 -6 0 -10 9
-10 20 0 17 -3 19 -19 11 -10 -6 -21 -8 -24 -5 -8 8 -48 -6 -43 -15 3 -4 -25
-7 -61 -6 -42 1 -68 6 -71 13 -4 14 -42 16 -42 3 0 -5 8 -12 18 -14 9 -3 1 -5
-18 -6 -26 0 -31 2 -20 9 11 7 8 10 -16 10 -20 0 -34 -6 -38 -16 -3 -8 -14
-14 -23 -13 -10 1 -49 -1 -88 -5 -38 -4 -146 -12 -240 -17 -93 -5 -188 -12
-210 -15 -22 -2 -69 -6 -105 -9 -36 -2 -101 -7 -145 -10 -44 -4 -107 -8 -140
-10 -33 -1 -69 -6 -79 -10 -13 -6 -21 -4 -24 3 -4 13 -32 17 -32 5 0 -5 -75
-7 -166 -6 -134 2 -171 5 -191 18 -14 9 -27 14 -30 12 -3 -3 8 -12 24 -21 l28
-15 -41 -1 c-23 0 -70 -3 -105 -6 -87 -9 -67 14 22 25 l64 8 -50 3 c-89 6
-236 -1 -450 -20 -519 -47 -869 -77 -1245 -105 -276 -21 -915 -74 -968 -81
l-42 -5 0 -520 0 -519 6700 0 6700 0 0 691 0 692 -45 -6 c-25 -4 -57 -9 -72
-12 l-28 -5 30 14 c39 19 24 19 -97 0 -54 -8 -104 -13 -111 -11 -7 3 0 6 16 6
15 1 27 6 27 12 0 7 -10 9 -27 4 -16 -4 -54 -9 -86 -10 -48 -2 -57 0 -53 12 5
12 1 14 -21 8 -57 -14 -70 -16 -147 -19 -74 -3 -77 -2 -50 10 l29 14 -32 -3
c-18 -2 -33 1 -33 6 0 11 -125 2 -185 -14 -127 -34 -208 -48 -270 -49 -38 0
-113 -9 -165 -20 -52 -11 -109 -20 -125 -20 -17 0 -35 -4 -40 -8 -19 -16 -198
-45 -189 -31 3 5 15 9 27 9 12 0 29 5 37 11 11 7 -6 8 -57 4 -47 -5 -73 -3
-73 3 0 15 -249 8 -282 -8 -16 -7 -28 -17 -28 -22 0 -5 -16 -6 -35 -2 -24 4
-35 2 -35 -5 0 -7 -3 -10 -7 -8 -5 2 -35 0 -68 -4 -90 -13 -155 -15 -155 -7 0
5 12 8 28 8 20 0 23 3 12 9 -8 6 -26 8 -40 6 -74 -11 -124 -14 -111 -6 10 6 1
11 -30 17 -24 4 -47 7 -50 6 -4 -1 -22 -3 -41 -5 -18 -2 -40 -7 -47 -12 -8 -4
-50 -8 -94 -7 -52 0 -76 -3 -66 -9 11 -7 9 -9 -9 -9 -13 0 -20 4 -17 10 8 13
-2 13 -133 -7 -79 -11 -116 -13 -120 -6 -4 6 -16 13 -27 16 -11 2 3 5 31 6 29
0 67 7 85 15 31 13 21 14 -111 10 -103 -2 -141 0 -130 7 11 8 3 9 -30 5 -116
-14 -165 -16 -145 -7 17 8 15 10 -12 10 -18 1 -33 6 -33 11 0 7 -6 8 -16 2 -9
-5 -26 -7 -37 -4 -14 3 -18 1 -13 -6 5 -8 0 -12 -13 -12 -12 0 -24 -1 -28 -2
-4 -2 -9 4 -11 14 -2 9 5 19 15 21 30 9 -128 -4 -180 -14 -47 -9 -139 -11
-104 -2 9 2 17 9 17 14 0 5 5 9 11 9 5 0 7 -4 4 -10 -3 -5 -1 -10 4 -10 6 0
11 5 11 10 0 6 9 10 19 10 11 0 23 5 26 10 8 13 7 13 -155 -4 -180 -20 -187
-14 -17 15 80 13 94 35 15 25 -83 -11 -252 -25 -256 -21 -2 2 13 7 34 10 22 4
66 15 99 25 l60 18 -43 1 c-24 1 -41 -2 -39 -6 3 -5 -38 -8 -91 -8 -54 0 -142
-5 -197 -12 -140 -17 -158 -14 -40 7 l100 18 -120 -5 c-66 -2 -138 -8 -160
-13 -46 -9 -179 -22 -152 -14 9 3 15 10 12 15 -4 5 1 9 9 9 9 0 16 4 16 9 0
10 -42 2 -50 -9 -9 -13 -70 -22 -70 -12 0 6 6 12 13 15 6 2 3 2 -8 0 -11 -2
-67 -6 -125 -8 -58 -3 -118 -10 -135 -15 -40 -12 -167 -16 -183 -6 -7 4 -71 5
-143 2 -90 -5 -129 -4 -129 4 0 7 -31 10 -94 8 -52 -2 -92 -6 -89 -10 7 -12
-12 -9 -24 3 -8 8 -17 7 -34 -2 -15 -8 -60 -13 -117 -14 -69 0 -91 -3 -87 -12
6 -16 -13 -16 -72 -2 l-45 12 28 14 c27 12 25 13 -31 8 -129 -10 -184 -18
-180 -26 3 -4 1 -10 -5 -14 -14 -9 -12 21 3 33 6 5 57 16 112 23 64 8 93 15
80 19 -18 6 38 15 158 25 15 1 30 5 34 9 4 4 -35 5 -86 4 -51 -2 -95 -6 -97
-10z m1114 -75 c-10 -2 -26 -2 -35 0 -10 3 -2 5 17 5 19 0 27 -2 18 -5z
m-1208 -12 c0 -10 -71 -21 -85 -12 -5 3 4 9 20 12 45 10 65 10 65 0z m43 2
c-7 -2 -19 -2 -25 0 -7 3 -2 5 12 5 14 0 19 -2 13 -5z m-2073 -25 c0 -4 -33
-7 -72 -7 -55 1 -66 3 -43 9 40 10 115 9 115 -2z m1893 5 c-7 -2 -21 -2 -30 0
-10 3 -4 5 12 5 17 0 24 -2 18 -5z m1334 1 c-3 -3 -12 -4 -19 -1 -8 3 -5 6 6
6 11 1 17 -2 13 -5z m-3827 -14 c0 -5 -7 -10 -15 -10 -8 0 -15 5 -15 10 0 6 7
10 15 10 8 0 15 -4 15 -10z m7407 -47 c-3 -2 -24 -4 -48 -4 -24 0 -59 -6 -76
-12 -24 -8 -36 -8 -44 0 -11 11 5 14 126 26 31 3 50 -1 42 -10z m-2087 -3 c0
-5 -10 -10 -22 -10 -19 0 -20 2 -8 10 19 13 30 13 30 0z m1530 -4 c0 -3 -4 -8
-10 -11 -5 -3 -10 -1 -10 4 0 6 5 11 10 11 6 0 10 -2 10 -4z m-70 -16 c0 -5
-2 -10 -4 -10 -3 0 -8 5 -11 10 -3 6 -1 10 4 10 6 0 11 -4 11 -10z m37 4 c-3
-3 -12 -4 -19 -1 -8 3 -5 6 6 6 11 1 17 -2 13 -5z m390 -10 c-3 -3 -12 -4 -19
-1 -8 3 -5 6 6 6 11 1 17 -2 13 -5z m-834 -11 c-7 -2 -19 -2 -25 0 -7 3 -2 5
12 5 14 0 19 -2 13 -5z m-8463 -23 c0 -6 -23 -9 -52 -9 -49 2 -51 2 -18 9 53
11 70 11 70 0z m37 4 c-3 -3 -12 -4 -19 -1 -8 3 -5 6 6 6 11 1 17 -2 13 -5z
m-262 -34 c-7 -11 -80 -8 -92 3 -3 4 17 7 46 7 34 0 50 -4 46 -10z m-118 -6
c-3 -3 -12 -4 -19 -1 -8 3 -5 6 6 6 11 1 17 -2 13 -5z m7100 -30 c119 -95 106
-271 -26 -341 l-44 -23 -1124 0 c-992 0 -1128 2 -1161 15 -159 67 -163 286 -7
368 27 15 146 16 1177 14 l1146 -2 39 -31z m-4337 -129 c14 -17 0 -21 -17 -4
-16 16 -33 2 -33 -26 0 -28 17 -42 33 -26 17 17 31 13 17 -4 -25 -30 -70 -11
-70 30 0 41 45 60 70 30z m40 -26 c0 -52 24 -48 28 4 2 20 8 37 13 37 6 0 9
-19 7 -42 -3 -40 -5 -43 -33 -43 -28 0 -30 3 -33 43 -2 25 1 42 7 42 6 0 11
-18 11 -41z m198 34 c-13 -3 -18 -15 -18 -44 0 -21 -4 -39 -10 -39 -5 0 -10
18 -10 40 0 28 -4 40 -14 40 -8 0 -17 -6 -20 -12 -5 -10 -7 -10 -12 0 -7 14
-34 16 -34 2 0 -6 12 -15 26 -20 32 -12 29 -44 -5 -48 -25 -4 -50 13 -36 25 4
5 10 2 12 -4 6 -18 33 -16 33 1 0 8 -11 17 -25 20 -23 6 -33 25 -19 38 3 4 38
6 77 6 40 0 64 -3 55 -5z m90 -5 c9 -9 12 -9 12 0 0 20 32 13 37 -8 3 -11 9
-20 13 -20 4 0 10 9 13 20 3 11 12 20 21 20 12 0 16 -10 16 -45 0 -45 -19 -66
-21 -22 l0 22 -11 -22 c-6 -13 -15 -23 -20 -23 -5 0 -13 10 -18 23 l-9 22 0
-22 c-1 -23 -21 -33 -21 -11 0 9 -3 9 -12 0 -36 -36 -93 11 -69 57 13 23 50
28 69 9z m231 -5 c10 -17 10 -17 11 0 0 13 8 17 35 17 38 0 57 -22 37 -42 -9
-9 -9 -15 0 -25 6 -7 8 -16 5 -20 -4 -3 -15 5 -26 18 l-20 24 -1 -22 c0 -27
-30 -32 -30 -5 -1 16 -1 16 -11 0 -21 -36 -79 -16 -79 27 0 43 58 63 79 28z
m169 5 c7 -7 12 -21 12 -33 0 -29 -19 -45 -52 -45 -27 0 -28 2 -28 45 0 43 1
45 28 45 15 0 33 -5 40 -12z m70 5 c-34 -5 -38 -32 -5 -34 l22 -2 -22 -4 c-32
-6 -29 -31 5 -36 22 -3 20 -4 -10 -6 l-38 -1 0 45 0 45 38 -1 c30 -2 32 -3 10
-6z m95 -27 c-1 -17 3 -36 9 -43 8 -9 7 -13 -2 -13 -6 0 -20 10 -31 23 l-18
22 -1 -22 c0 -13 -4 -23 -10 -23 -5 0 -10 21 -10 46 0 45 0 45 33 42 29 -3 32
-6 30 -32z m6077 -373 c0 -48 -4 -73 -9 -64 -6 9 -11 10 -15 2 -17 -26 -66 3
-66 39 0 29 29 52 56 46 21 -6 24 -3 24 24 0 16 2 30 5 30 3 0 5 -35 5 -77z
m-1110 -6 c12 -32 20 -60 17 -63 -3 -3 -8 4 -12 15 -9 31 -68 29 -83 -1 -6
-13 -11 -17 -11 -8 0 8 9 33 19 55 14 30 18 33 14 13 -6 -25 -3 -28 20 -28 14
0 26 4 26 10 0 19 -23 59 -31 54 -11 -6 -12 10 -2 20 10 9 17 -2 43 -67z m695
18 c8 -30 17 -55 20 -55 2 0 11 25 20 56 18 63 26 61 45 -9 15 -55 22 -52 40
16 7 26 15 46 17 43 7 -6 -30 -136 -39 -136 -4 0 -15 26 -25 58 l-17 57 -16
-53 c-9 -29 -20 -54 -25 -55 -8 -2 -28 46 -40 101 -11 52 2 36 20 -23z m-201
13 c8 -5 7 -8 -1 -8 -8 0 -13 -15 -13 -39 0 -22 5 -42 13 -44 7 -4 8 -6 1 -6
-20 -2 -33 23 -35 65 -3 43 11 80 19 54 3 -8 10 -18 16 -22z m-328 7 c9 -8 11
-15 5 -15 -15 0 -14 -77 2 -83 7 -4 8 -6 1 -6 -19 -2 -32 22 -34 59 -4 65 0
72 26 45z m-74 -12 c-25 -5 -46 -37 -38 -59 3 -8 16 -19 28 -24 16 -6 18 -9 6
-9 -22 -1 -48 26 -48 49 0 26 27 50 53 49 22 -2 22 -2 -1 -6z m125 -70 c-2
-16 -4 -3 -4 27 0 30 2 43 4 28 2 -16 2 -40 0 -55z m63 10 c0 -27 17 -11 30
27 7 22 15 38 18 36 6 -7 -29 -96 -38 -96 -8 0 -41 79 -39 95 1 13 28 -46 29
-62z m138 14 c2 -30 -1 -47 -6 -43 -6 3 -8 15 -5 26 3 13 0 20 -8 20 -12 0
-12 2 0 9 20 13 3 33 -21 25 -14 -4 -18 -3 -13 6 4 6 17 10 28 8 19 -3 22 -11
25 -51z m170 41 c23 -23 13 -38 -23 -38 -49 0 -42 -30 10 -43 15 -4 14 -5 -7
-6 -43 -2 -64 52 -32 83 19 19 36 20 52 4z m289 -65 c-2 -16 -4 -3 -4 27 0 30
2 43 4 28 2 -16 2 -40 0 -55z m50 0 c-2 -16 -4 -3 -4 27 0 30 2 43 4 28 2 -16
2 -40 0 -55z m59 22 l2 -50 -7 45 c-5 34 -10 45 -23 44 -10 -1 -15 2 -12 8 3
5 13 8 22 6 13 -2 17 -15 18 -53z m238 39 c31 -30 9 -84 -34 -84 -24 0 -50 26
-50 50 0 24 26 50 50 50 10 0 26 -7 34 -16z m68 -54 c4 0 8 8 8 17 0 9 2 14 5
11 8 -8 -5 -58 -15 -58 -4 0 -13 20 -19 44 -14 56 -12 75 2 24 6 -21 14 -38
19 -38z m47 20 c-1 -13 -1 -13 -6 0 -3 8 -10 18 -16 21 -5 4 -6 13 -2 20 6 9
10 8 16 -7 4 -10 8 -26 8 -34z m38 28 c-3 -8 -6 -5 -6 6 -1 11 2 17 5 13 3 -3
4 -12 1 -19z m77 13 c4 -5 -2 -7 -13 -4 -30 8 -34 -14 -6 -33 14 -9 25 -22 25
-29 0 -18 -39 -30 -52 -17 -8 8 -5 9 9 6 21 -6 45 17 26 23 -6 2 -19 10 -29
17 -15 12 -16 16 -5 30 15 18 37 21 45 7z m-87 -53 c-3 -8 -6 -5 -6 6 -1 11 2
17 5 13 3 -3 4 -12 1 -19z m-997 2 c-13 -9 -12 -12 4 -25 17 -13 17 -15 4 -15
-9 0 -20 5 -23 10 -9 15 2 40 17 40 9 0 9 -3 -2 -10z m990 -31 c0 -5 -4 -9
-10 -9 -5 0 -10 7 -10 16 0 8 5 12 10 9 6 -3 10 -10 10 -16z m-1380 -113 c0
-2 -11 -6 -25 -8 -13 -3 -22 -1 -19 3 5 9 44 13 44 5z m387 -2 c-3 -3 -12 -4
-19 -1 -8 3 -5 6 6 6 11 1 17 -2 13 -5z m1333 -14 c0 -5 -5 -10 -11 -10 -5 0
-7 5 -4 10 3 6 8 10 11 10 2 0 4 -4 4 -10z m-1323 -74 c-4 -10 -17 -15 -34
-15 l-28 2 28 4 c34 5 35 26 2 47 -14 9 -25 21 -25 26 0 5 14 -4 31 -20 20
-18 30 -34 26 -44z m-460 27 c-3 -10 -5 -4 -5 12 0 17 2 24 5 18 2 -7 2 -21 0
-30z m126 27 c-14 -6 -23 -18 -23 -30 0 -12 9 -24 23 -30 13 -5 16 -9 7 -9
-20 -1 -40 18 -40 39 0 21 20 40 40 39 9 0 6 -4 -7 -9z m124 4 c-3 -3 -12 -4
-19 -1 -8 3 -5 6 6 6 11 1 17 -2 13 -5z m56 -4 c-14 -6 -23 -18 -23 -30 0 -12
9 -24 23 -30 13 -5 16 -9 7 -9 -20 -1 -40 18 -40 39 0 21 20 40 40 39 9 0 6
-4 -7 -9z m231 1 c4 -5 -3 -7 -14 -4 -23 6 -26 13 -6 13 8 0 17 -4 20 -9z m53
3 c-3 -3 -12 -4 -19 -1 -8 3 -5 6 6 6 11 1 17 -2 13 -5z m50 0 c-3 -3 -12 -4
-19 -1 -8 3 -5 6 6 6 11 1 17 -2 13 -5z m261 -1 c-10 -2 -18 -8 -18 -13 0 -5
8 -14 18 -19 9 -6 12 -11 6 -11 -17 0 -37 27 -29 40 3 5 14 9 23 9 15 -1 15
-2 0 -6z m99 1 c-3 -3 -12 -4 -19 -1 -8 3 -5 6 6 6 11 1 17 -2 13 -5z m56 -4
c-14 -6 -23 -18 -23 -30 0 -12 9 -24 23 -30 13 -5 16 -9 7 -9 -20 -1 -40 18
-40 39 0 21 20 40 40 39 9 0 6 -4 -7 -9z m134 4 c-3 -3 -12 -4 -19 -1 -8 3 -5
6 6 6 11 1 17 -2 13 -5z m76 -4 c-14 -6 -23 -18 -23 -30 0 -12 9 -24 23 -30
13 -5 16 -9 7 -9 -20 -1 -40 18 -40 39 0 21 20 40 40 39 9 0 6 -4 -7 -9z m64
4 c-3 -3 -12 -4 -19 -1 -8 3 -5 6 6 6 11 1 17 -2 13 -5z m170 0 c-3 -3 -12 -4
-19 -1 -8 3 -5 6 6 6 11 1 17 -2 13 -5z m70 0 c-3 -3 -12 -4 -19 -1 -8 3 -5 6
6 6 11 1 17 -2 13 -5z m77 -3 c4 -5 -3 -7 -14 -4 -23 6 -26 13 -6 13 8 0 17
-4 20 -9z m449 -1 c-14 -6 -23 -18 -23 -30 0 -12 9 -24 23 -30 13 -5 16 -9 7
-9 -20 -1 -40 18 -40 39 0 21 20 40 40 39 9 0 6 -4 -7 -9z m195 3 c-10 -2 -18
-8 -18 -13 0 -5 8 -14 18 -19 9 -6 12 -11 6 -11 -17 0 -37 27 -29 40 3 5 14 9
23 9 15 -1 15 -2 0 -6z m-2220 -40 c-2 -21 -9 -28 -26 -29 -18 -1 -19 -1 -2 3
22 5 28 38 8 46 -8 3 -5 6 5 6 14 1 18 -5 15 -26z m89 -5 c-3 -7 -5 -2 -5 12
0 14 2 19 5 13 2 -7 2 -19 0 -25z m180 0 c-3 -7 -5 -2 -5 12 0 14 2 19 5 13 2
-7 2 -19 0 -25z m181 14 c-34 -4 -36 -19 -5 -32 13 -5 16 -9 7 -9 -20 -1 -40
18 -40 39 0 13 7 15 33 11 31 -5 31 -6 5 -9z m239 -29 c-3 -10 -5 -2 -5 17 0
19 2 27 5 18 2 -10 2 -26 0 -35z m30 15 c-3 -7 -5 -2 -5 12 0 14 2 19 5 13 2
-7 2 -19 0 -25z m300 0 c-3 -7 -5 -2 -5 12 0 14 2 19 5 13 2 -7 2 -19 0 -25z
m541 14 c-34 -4 -36 -19 -5 -32 13 -5 16 -9 7 -9 -20 -1 -40 18 -40 39 0 13 7
15 33 11 31 -5 31 -6 5 -9z m319 -29 c-3 -10 -5 -2 -5 17 0 19 2 27 5 18 2
-10 2 -26 0 -35z m30 15 c-3 -7 -5 -2 -5 12 0 14 2 19 5 13 2 -7 2 -19 0 -25z
m150 0 c-3 -7 -5 -2 -5 12 0 14 2 19 5 13 2 -7 2 -19 0 -25z m-930 16 c-3 -3
-12 -4 -19 -1 -8 3 -5 6 6 6 11 1 17 -2 13 -5z m310 0 c-3 -3 -12 -4 -19 -1
-8 3 -5 6 6 6 11 1 17 -2 13 -5z m-333 -37 c7 -6 6 -7 -4 -4 -8 2 -16 12 -17
23 -2 13 -1 15 4 4 3 -8 11 -19 17 -23z m310 0 c7 -6 6 -7 -4 -4 -8 2 -16 12
-17 23 -2 13 -1 15 4 4 3 -8 11 -19 17 -23z m326 2 c0 -6 -4 -7 -10 -4 -5 3
-10 11 -10 16 0 6 5 7 10 4 6 -3 10 -11 10 -16z m-913 -5 c-3 -3 -12 -4 -19
-1 -8 3 -5 6 6 6 11 1 17 -2 13 -5z m1390 0 c-3 -3 -12 -4 -19 -1 -8 3 -5 6 6
6 11 1 17 -2 13 -5z m-1452 -24 c-3 -5 -16 -10 -28 -9 -20 1 -20 2 3 9 14 4
26 8 28 9 2 1 0 -3 -3 -9z m-4797 -127 c32 31 41 35 50 24 9 -10 1 -24 -38
-62 l-50 -49 -50 49 c-39 38 -47 52 -38 62 9 11 18 7 50 -24 l38 -37 38 37z"/>
<path d="M7470 985 c0 -44 0 -45 33 -44 30 2 30 2 5 6 -16 2 -28 10 -28 18 0
8 12 16 28 18 l27 4 -27 2 c-17 0 -28 7 -28 15 0 8 12 17 28 19 25 4 25 4 -5
6 -33 1 -33 0 -33 -44z"/>
<path d="M7561 1008 c10 -24 9 -31 -6 -48 -10 -11 -15 -20 -10 -20 4 0 14 8
21 18 13 16 15 16 28 0 7 -10 17 -18 21 -18 5 0 0 9 -10 20 -15 17 -16 24 -6
48 10 25 10 26 -4 8 -15 -20 -15 -20 -30 0 -14 18 -14 17 -4 -8z"/>
<path d="M7633 985 c0 -27 2 -38 4 -22 2 15 2 37 0 50 -2 12 -4 0 -4 -28z"/>
<path d="M7665 1020 c-9 -14 3 -30 33 -41 19 -8 23 -12 13 -22 -9 -9 -16 -9
-32 2 -18 10 -20 10 -17 -1 6 -18 42 -22 56 -6 13 17 5 30 -28 45 -23 10 -24
11 -6 19 13 5 21 3 24 -4 2 -7 8 -12 14 -12 6 0 6 6 -2 15 -14 17 -46 20 -55
5z"/>
<path d="M7753 1023 c12 -3 17 -16 19 -46 l1 -42 4 40 c3 22 10 43 16 47 7 4
-4 7 -23 7 -19 -1 -27 -3 -17 -6z"/>
<path d="M7823 985 c0 -27 2 -38 4 -22 2 15 2 37 0 50 -2 12 -4 0 -4 -28z"/>
<path d="M7851 983 c2 -45 2 -46 8 -13 l6 35 20 -32 c11 -18 23 -33 27 -33 4
0 7 21 6 48 -1 36 -2 39 -5 15 -5 -41 -17 -42 -33 -3 -18 44 -30 37 -29 -17z"/>
<path d="M7952 1018 c-29 -29 -4 -84 35 -76 25 5 31 48 6 47 -10 0 -13 -3 -5
-6 22 -9 14 -35 -10 -31 -18 2 -23 10 -23 33 0 33 30 48 47 23 8 -10 9 -10 5
2 -5 19 -39 24 -55 8z"/>
<path d="M8073 985 c0 -27 2 -38 4 -22 2 15 2 37 0 50 -2 12 -4 0 -4 -28z"/>
<path d="M8101 984 c2 -46 2 -47 8 -14 l7 35 17 -32 c10 -18 20 -33 22 -33 3
0 4 21 4 48 -2 45 -2 45 -8 12 -6 -31 -8 -32 -14 -13 -4 11 -14 27 -22 33 -13
11 -15 5 -14 -36z"/>
<path d="M8185 1009 c14 -45 24 -69 30 -69 6 0 35 69 34 84 0 6 -9 -7 -19 -29
l-18 -40 -7 33 c-4 18 -12 35 -17 38 -6 4 -7 -3 -3 -17z"/>
<path d="M8270 985 c0 -44 0 -45 33 -44 30 2 30 2 5 6 -34 5 -37 30 -5 36 l22
4 -22 2 c-33 2 -29 29 5 34 25 4 25 4 -5 6 -33 1 -33 0 -33 -44z"/>
<path d="M8351 983 c2 -46 2 -46 8 -13 6 31 8 32 14 13 4 -11 14 -27 22 -33
13 -11 15 -5 14 36 -2 46 -2 47 -8 14 l-7 -35 -17 33 c-10 17 -20 32 -22 32
-3 0 -4 -21 -4 -47z"/>
<path d="M8432 1023 c12 -3 18 -17 21 -46 l4 -42 1 42 c2 30 7 43 20 46 9 3
-1 5 -23 5 -22 0 -32 -2 -23 -5z"/>
<path d="M8509 1009 c-8 -16 -8 -28 0 -45 18 -41 71 -25 71 21 0 44 -50 61
-71 24z m56 -24 c0 -23 -5 -31 -21 -33 -24 -3 -38 20 -28 50 4 13 13 18 27 16
17 -2 22 -10 22 -33z"/>
<path d="M8601 983 c1 -26 4 -38 6 -25 5 27 19 28 35 2 7 -11 17 -20 22 -20 4
0 4 6 -2 13 -6 7 -10 26 -9 43 2 25 -2 29 -25 32 -27 3 -28 2 -27 -45z m49 22
c0 -8 -9 -15 -20 -15 -11 0 -20 7 -20 15 0 8 9 15 20 15 11 0 20 -7 20 -15z"/>
<path d="M8684 1008 c9 -12 16 -34 17 -48 1 -25 1 -24 9 4 5 15 17 37 26 47 9
10 14 19 10 19 -4 0 -16 -10 -26 -22 l-17 -22 -7 22 c-4 12 -12 22 -17 22 -6
0 -3 -10 5 -22z"/>
<path d="M5246 1002 c-9 -27 3 -54 23 -50 22 5 22 62 -1 66 -9 2 -19 -5 -22
-16z"/>
<path d="M5477 1013 c-11 -10 -8 -51 4 -59 6 -3 18 0 26 9 12 11 13 19 4 36
-12 22 -23 26 -34 14z"/>
<path d="M5570 1005 c0 -8 7 -15 15 -15 8 0 15 7 15 15 0 8 -7 15 -15 15 -8 0
-15 -7 -15 -15z"/>
<path d="M5650 985 c0 -29 3 -36 18 -33 11 2 17 13 17 33 0 20 -6 31 -17 33
-15 3 -18 -4 -18 -33z"/>
<path d="M5820 1005 c0 -8 7 -15 15 -15 8 0 15 7 15 15 0 8 -7 15 -15 15 -8 0
-15 -7 -15 -15z"/>
<path d="M11870 621 c-13 -26 4 -64 27 -59 25 5 40 35 27 56 -16 25 -41 26
-54 3z"/>
<path d="M11370 625 c-11 -13 -8 -15 20 -15 21 0 30 4 28 13 -7 18 -33 20 -48
2z"/>
<path d="M11990 620 c-14 -26 3 -60 30 -60 11 0 24 9 30 20 14 26 -3 60 -30
60 -11 0 -24 -9 -30 -20z"/>
<path d="M6663 1423 c9 -2 23 -2 30 0 6 3 -1 5 -18 5 -16 0 -22 -2 -12 -5z"/>
<path d="M7190 1421 c12 -9 9 -11 -14 -11 -16 0 -27 -2 -24 -5 3 -3 37 -2 77
1 39 4 70 8 69 9 -2 1 -30 6 -63 9 -42 5 -56 4 -45 -3z"/>
<path d="M7428 1413 c6 -2 18 -2 25 0 6 3 1 5 -13 5 -14 0 -19 -2 -12 -5z"/>
<path d="M12432 1403 c-36 -11 -36 -11 18 -7 73 6 88 9 97 18 11 10 -72 3
-115 -11z"/>
<path d="M7638 1403 c7 -3 16 -2 19 1 4 3 -2 6 -13 5 -11 0 -14 -3 -6 -6z"/>
<path d="M7688 1403 c6 -2 18 -2 25 0 6 3 1 5 -13 5 -14 0 -19 -2 -12 -5z"/>
<path d="M8768 1403 c6 -2 18 -2 25 0 6 3 1 5 -13 5 -14 0 -19 -2 -12 -5z"/>
<path d="M12981 1394 c0 -11 3 -14 6 -6 3 7 2 16 -1 19 -3 4 -6 -2 -5 -13z"/>
<path d="M6148 1393 c7 -3 16 -2 19 1 4 3 -2 6 -13 5 -11 0 -14 -3 -6 -6z"/>
<path d="M7563 1393 c9 -2 25 -2 35 0 9 3 1 5 -18 5 -19 0 -27 -2 -17 -5z"/>
<path d="M7468 1383 c12 -2 32 -2 45 0 12 2 2 4 -23 4 -25 0 -35 -2 -22 -4z"/>
<path d="M8113 1383 c9 -2 23 -2 30 0 6 3 -1 5 -18 5 -16 0 -22 -2 -12 -5z"/>
<path d="M8204 1378 c15 -10 68 -10 85 1 8 5 -7 8 -42 7 -30 0 -50 -4 -43 -8z"/>
<path d="M8758 1383 c7 -3 16 -2 19 1 4 3 -2 6 -13 5 -11 0 -14 -3 -6 -6z"/>
<path d="M418 1373 c6 -2 18 -2 25 0 6 3 1 5 -13 5 -14 0 -19 -2 -12 -5z"/>
<path d="M5513 1373 c9 -2 23 -2 30 0 6 3 -1 5 -18 5 -16 0 -22 -2 -12 -5z"/>
<path d="M12343 1373 c9 -2 23 -2 30 0 6 3 -1 5 -18 5 -16 0 -22 -2 -12 -5z"/>
<path d="M80 1359 c0 -4 -18 -5 -40 -2 l-40 6 0 -122 0 -122 58 6 c93 9 706
64 847 76 72 6 138 15 147 20 10 5 24 6 33 3 8 -4 22 -1 30 6 10 9 15 9 15 1
0 -6 9 -11 21 -11 11 0 18 4 15 8 -2 4 11 7 30 7 32 -2 33 -1 17 17 -17 19
-53 25 -53 8 0 -5 -9 -10 -20 -10 -11 0 -20 5 -20 10 0 6 -7 10 -15 10 -8 0
-15 -4 -15 -10 0 -12 -37 -13 -42 -1 -1 4 -39 5 -83 1 -59 -5 -86 -4 -101 6
-12 7 -75 18 -140 24 -156 15 -155 15 -257 -1 -76 -11 -90 -11 -97 1 -7 12
-12 12 -22 2 -13 -13 -88 -17 -88 -4 0 5 -30 8 -67 7 -94 -2 -112 2 -106 26 3
11 17 22 32 25 14 3 31 7 36 8 6 2 -9 5 -32 7 -24 3 -43 1 -43 -2z m-3 -25
c-3 -3 -12 -4 -19 -1 -8 3 -5 6 6 6 11 1 17 -2 13 -5z m-10 -40 c-3 -3 -12 -4
-19 -1 -8 3 -5 6 6 6 11 1 17 -2 13 -5z"/>
<path d="M210 1360 c-19 -12 42 -12 80 0 21 7 17 8 -20 9 -25 0 -52 -4 -60 -9z"/>
<path d="M5403 1363 c15 -2 39 -2 55 0 15 2 2 4 -28 4 -30 0 -43 -2 -27 -4z"/>
<path d="M4868 1353 c7 -3 16 -2 19 1 4 3 -2 6 -13 5 -11 0 -14 -3 -6 -6z"/>
<path d="M1328 1303 c7 -3 16 -2 19 1 4 3 -2 6 -13 5 -11 0 -14 -3 -6 -6z"/>
<path d="M1148 1293 c12 -2 30 -2 40 0 9 3 -1 5 -23 4 -22 0 -30 -2 -17 -4z"/>
<path d="M1028 1283 c12 -2 30 -2 40 0 9 3 -1 5 -23 4 -22 0 -30 -2 -17 -4z"/>
<path d="M1538 1253 c7 -3 16 -2 19 1 4 3 -2 6 -13 5 -11 0 -14 -3 -6 -6z"/>
<path d="M1438 1243 c6 -2 18 -2 25 0 6 3 1 5 -13 5 -14 0 -19 -2 -12 -5z"/>
</g>
</svg>
